<?xml version="1.0" encoding="UTF-8" standalone="no"?>
<!DOCTYPE svg PUBLIC "-//W3C//DTD SVG 1.1//EN" "http://www.w3.org/Graphics/SVG/1.1/DTD/svg11.dtd">
<svg width="100%" height="100%" viewBox="0 0 152 168" version="1.1" xmlns="http://www.w3.org/2000/svg" xmlns:xlink="http://www.w3.org/1999/xlink" xml:space="preserve" xmlns:serif="http://www.serif.com/" style="fill-rule:evenodd;clip-rule:evenodd;stroke-linejoin:round;stroke-miterlimit:2;">
    <g transform="matrix(4.58005,0,0,4.58005,-530.175,-930.279)">
        <path d="M131.712,237.905C131.712,238.245 132.392,238.415 132.562,237.905L134.092,225.125L130.182,225.125L131.712,237.905ZM135.462,224.275L135.462,222.355L128.822,222.355L128.822,224.235L135.462,224.275ZM130.522,221.355C125.752,218.465 126.262,214.545 128.312,211.645L128.312,211.355C128.122,210.314 127.713,209.325 127.112,208.455C127.112,208.285 126.942,208.285 126.942,208.455C126.942,209.315 125.942,211.355 124.562,213.575C123.202,215.955 123.202,221.235 130.562,221.405L130.522,221.355ZM133.582,221.355C141.922,221.695 142.582,214.035 142.582,211.135C142.412,211.815 141.212,213.865 138.152,215.225C135.61,216.257 133.845,218.624 133.582,221.355ZM131.732,221.185C128.842,215.185 134.622,211.305 135.482,210.455C135.652,210.285 135.652,210.285 135.652,210.115C135.521,208.236 135.05,206.396 134.262,204.685L134.092,204.685C133.582,206.555 131.032,209.285 130.522,209.965C126.092,215.075 127.112,218.315 131.712,221.205L131.732,221.185ZM132.732,220.845C134.092,214.545 139.202,214.375 139.732,213.175C140.412,211.305 139.052,207.895 138.732,207.555L138.562,207.555C137.922,209.003 136.981,210.298 135.802,211.355C134.802,212.205 130.352,215.615 132.732,220.895L132.732,220.845Z" style="fill:rgb(87,6,140);fill-rule:nonzero;"/>
    </g>
</svg>
